HIERARCHY
ROOT Hips
{
  OFFSET -35.4901 99.2528 17.4586
  CHANNELS 6 Xposition Yposition Zposition Zrotation Xrotation Yrotation
  JOINT LeftUpLeg
  {
    OFFSET 8.64259 1.95398 -2.38835
    CHANNELS 3 Zrotation Xrotation Yrotation
    JOINT LeftLeg
    {
      OFFSET 43.7702 0 0
      CHANNELS 3 Zrotation Xrotation Yrotation
      JOINT LeftFoot
      {
        OFFSET 40.6238 0 0
        CHANNELS 3 Zrotation Xrotation Yrotation
        JOINT LeftToeBase
        {
          OFFSET 12.7242 0 0
          CHANNELS 3 Zrotation Xrotation Yrotation
          End Site
          {
            OFFSET 0 0 0
          }
        }
      }
    }
  }
  JOINT RightUpLeg
  {
    OFFSET -8.2249 1.95398 -2.59336
    CHANNELS 3 Zrotation Xrotation Yrotation
    JOINT RightLeg
    {
      OFFSET 43.5653 0 0
      CHANNELS 3 Zrotation Xrotation Yrotation
      JOINT RightFoot
      {
        OFFSET 40.6238 0 0
        CHANNELS 3 Zrotation Xrotation Yrotation
        JOINT RightToeBase
        {
          OFFSET 12.7242 0 0
          CHANNELS 3 Zrotation Xrotation Yrotation
          End Site
          {
            OFFSET 0 0 0
          }
        }
      }
    }
  }
  JOINT Spine
  {
    OFFSET 0.165834 0.87714 6.61349
    CHANNELS 3 Zrotation Xrotation Yrotation
    JOINT Spine1
    {
      OFFSET 7.38963 1.71661e-005 0
      CHANNELS 3 Zrotation Xrotation Yrotation
      JOINT Spine2
      {
        OFFSET 11.9445 1.14441e-005 0
        CHANNELS 3 Zrotation Xrotation Yrotation
        JOINT Spine3
        {
          OFFSET 14.7254 4.19617e-005 0
          CHANNELS 3 Zrotation Xrotation Yrotation
          JOINT Spine4
          {
            OFFSET 10.9679 0 0
            CHANNELS 3 Zrotation Xrotation Yrotation
            JOINT RightShoulder
            {
              OFFSET 2.46616 -1.6653 3.69651
              CHANNELS 3 Zrotation Xrotation Yrotation
              JOINT RightArm
              {
                OFFSET 13.0012 0 0
                CHANNELS 3 Zrotation Xrotation Yrotation
                JOINT RightForeArm
                {
                  OFFSET 28.7848 1.52588e-005 0
                  CHANNELS 3 Zrotation Xrotation Yrotation
                  JOINT RightHand
                  {
                    OFFSET 26.5688 1.52588e-005 0
                    CHANNELS 3 Zrotation Xrotation Yrotation
                    End Site
                    {
                      OFFSET 0 0 0
                    }
                  }
                }
              }
            }
            JOINT LeftShoulder
            {
              OFFSET 2.38034 -1.29275 -3.7523
              CHANNELS 3 Zrotation Xrotation Yrotation
              JOINT LeftArm
              {
                OFFSET 16.3182 6.10351e-005 0
                CHANNELS 3 Zrotation Xrotation Yrotation
                JOINT LeftForeArm
                {
                  OFFSET 27.0901 0 0
                  CHANNELS 3 Zrotation Xrotation Yrotation
                  JOINT LeftHand
                  {
                    OFFSET 24.5451 1.52588e-005 0
                    CHANNELS 3 Zrotation Xrotation Yrotation
                    End Site
                    {
                      OFFSET 0 0 0
                    }
                  }
                }
              }
            }
            JOINT Neck
            {
              OFFSET 5.0226 -0.0266342 0
              CHANNELS 3 Zrotation Xrotation Yrotation
              JOINT Head
              {
                OFFSET 6.69364 2.86102e-005 0
                CHANNELS 3 Zrotation Xrotation Yrotation
                End Site
                {
                  OFFSET 0 0 0
                }
              }
            }
          }
        }
      }
    }
  }
}
MOTION
Frames:	14
Frame Time:	0.0416667
-99.7532 23.9676 114.93 -9.71189 -11.1317 -89.664 -145.442 27.459 109.785 -64.038 23.3328 -15.0179 84.1578 8.54746 -8.88671 32.8674 -6.48057 11.554 167.965 9.83624 80.9372 -41.0093 -17.9087 -0.689019 78.8523 -7.95116 2.05094 26.4178 -1.7911 4.87401 -0.0468911 6.9944 -89.4544 12.883 0.168336 1.07056 1.21162 0.215274 1.06207 -21.32 -0.161176 1.07165 -1.30738 -0.161187 1.07163 85.1587 -29.8211 -116.296 -110.465 81.5851 108.608 -59.6536 -11.2975 -138.715 -36.3895 -5.02893 4.6076 -88.1404 -42.4831 80.0181 -27.0865 -25.576 -73.55 60.7609 -11.2253 -97.9859 -7.31609 -0.0255846 -5.8742 43.231 -1.47214 2.34848 -5.57292 -2.56297 -0.904082 
-98.3613 25.0178 117.077 -9.75714 -7.12977 -89.0479 -148.186 22.6078 109.797 -60.712 18.7325 -14.5317 72.4181 4.65441 -6.96082 31.1319 -6.4504 11.2602 166.937 13.3748 79.9462 -44.8045 -17.8161 0.0274553 79.0383 -7.94514 2.55003 28.296 -2.07434 5.59535 0.296713 6.96139 -89.6382 12.9491 0.762707 0.630829 1.27821 0.789722 0.596649 -21.2567 0.53786 0.830878 -1.24407 0.537866 0.830895 84.5006 -28.1584 -118.462 -114.298 81.5532 109.68 -59.8073 -16.4585 -132.24 -37.7678 -3.71427 -0.3081 -88.2121 -42.4983 79.9025 -26.9322 -23.4969 -75.5207 63.4649 -9.63437 -96.0661 -7.56785 -0.0561518 -5.14042 42.0249 -0.510223 4.42366 -5.1752 -2.63822 -2.68729 
-96.5669 25.9468 119.11 -9.71181 -3.12019 -87.9582 -151.628 17.4393 109.692 -53.0502 10.2784 -15.5304 73.0771 4.84374 -7.14783 28.4327 -6.53207 11.0367 166.891 16.3869 79.058 -47.2737 -20.5109 0.035827 80.451 -8.38346 3.568 29.1264 -1.95679 5.26495 0.703515 6.99049 -89.889 12.893 1.45022 0.0479105 1.22289 1.45092 -0.0159825 -21.3181 1.36876 0.481628 -1.30547 1.36877 0.481621 86.1025 -24.5963 -117.263 -123.4 82.5129 118.035 -61.7869 -19.9198 -127.94 -37.3694 -3.21568 -1.93601 -88.2653 -40.8276 79.4459 -29.828 -22.0316 -78.8327 65.4975 -8.26917 -95.2373 -9.22745 -0.100791 -4.2124 42.1453 -0.168326 4.39642 -5.58772 -2.30583 -2.45748 
-94.2084 26.9846 120.868 -10.3454 -2.06975 -88.2777 -152.709 14.8909 108.782 -43.3766 9.49946 -17.3143 80.1909 6.80285 -9.53887 31.6282 -8.16351 14.4305 165.639 18.5424 77.2197 -49.5829 -22.7844 0.467238 82.7308 -9.57375 2.54665 31.9988 -2.26639 6.22308 0.768579 7.14663 -90.1106 12.5848 1.47406 -0.394249 0.914605 1.45528 -0.458758 -21.6273 1.52435 0.0670817 -1.61468 1.52438 0.0670916 87.115 -20.9978 -117.22 -129.968 83.5992 122.168 -62.3756 -23.1881 -121.912 -36.6394 -2.67906 -3.53798 -88.3507 -41.639 79.4921 -31.9145 -20.3273 -83.6928 69.8269 -6.46109 -94.0398 -11.2852 -0.0541895 -4.82243 42.5814 0.919305 6.67016 -5.7007 -2.41275 -4.16696 
-92.0994 28.1713 122.083 -11.2649 -1.05492 -88.0581 -153.167 16.4375 108.296 -42.4102 13.8418 -16.3398 83.5342 8.01718 -9.15942 34.8975 -8.4396 15.6256 165.086 20.8115 76.4808 -53.3821 -22.4616 0.771721 84.3581 -10.1994 2.68109 36.0846 -0.967991 1.9189 0.870195 7.32353 -90.1043 12.2309 1.6802 -0.39613 0.560946 1.66115 -0.469718 -21.9829 1.72154 0.127302 -1.97029 1.72154 0.127269 87.1359 -21.1915 -117.055 -141.007 85.1925 128.808 -64.7652 -26.4399 -115.543 -34.1731 -2.316 -4.46397 -88.7316 -37.8562 77.9412 -34.9813 -18.9948 -87.0312 75.0259 -4.35223 -93.4378 -12.4457 -0.0129751 -5.24982 41.9717 -0.344985 3.94019 -4.67653 -2.27411 -1.62182 
-90.5522 29.0704 123.485 -11.9003 1.43914 -88.0289 -152.858 18.3462 108.3 -46.9874 14.9262 -15.5487 85.7931 8.42096 -11.3594 35.1553 -8.42802 15.6701 165.325 24.4193 76.0677 -59.2555 -21.0432 0.693947 85.2001 -10.5946 2.26209 33.8824 -0.767809 1.5319 0.946633 7.38192 -90.1188 12.115 1.82568 -0.438225 0.445208 1.80463 -0.518182 -22.1002 1.87294 0.130919 -2.0876 1.87296 0.130917 86.4136 -20.0556 -119.378 -117.703 87.4111 103.341 -63.4017 -28.9105 -107.632 -35.0022 -1.89553 -5.89636 -88.2997 -36.6738 78.3955 -35.196 -18.8057 -89.261 76.6494 -1.80447 -92.5564 -12.8002 -0.127336 -3.96337 40.7223 -0.241793 3.74277 -4.16573 -2.03384 -1.99548 
-89.7682 28.9918 125.086 -12.1534 2.05004 -87.6559 -152.276 20.1444 108.16 -51.1642 17.0363 -14.8173 87.0044 8.90561 -11.3243 33.3879 -8.5005 15.4011 163.547 25.9319 75.2264 -61.4519 -20.3434 1.48654 84.8907 -10.497 1.98331 34.3212 -0.559308 0.815399 0.928478 7.31341 -90.2602 12.2539 1.72209 -0.712258 0.583906 1.68907 -0.787391 -21.9603 1.8565 -0.161608 -1.94764 1.85651 -0.161614 87.3243 -19.68 -117.574 112.06 88.1452 -126.879 -69.7149 -29.7765 -106.515 -30.2231 -1.88697 -6.10552 -87.8839 -35.5381 78.852 -36.9189 -17.0973 -90.3729 79.0104 -0.295439 -92.1101 -13.4391 -0.0535845 -4.74423 41.5329 0.485219 3.79657 -4.65085 -1.39307 -2.39444 
-89.4704 27.7517 126.644 -12.5439 2.7178 -86.9982 -150.714 21.4426 108.639 -55.8625 17.8455 -14.4863 86.3485 8.66786 -11.7417 33.9274 -8.78591 16.0557 162.505 25.3931 74.0626 -61.2908 -21.8224 1.75445 84.5966 -10.348 2.15905 35.8437 -0.545462 0.548752 1.02289 7.19893 -90.3177 12.4841 1.88098 -0.851764 0.814151 1.84169 -0.933742 -21.7316 2.04999 -0.246846 -1.71893 2.04998 -0.246872 89.2203 -18.3593 -114.003 112.189 84.209 -121.707 -73.2151 -28.2133 -111.989 -27.0549 -2.35283 -3.88109 -89.8578 -33.5612 74.7384 -37.6206 -18.2246 -89.7359 79.8709 1.0798 -92.0138 -14.0016 -0.0242468 -5.02238 43.7896 -0.993791 -0.288184 -6.88454 -0.824612 0.981258 
-89.5878 25.9689 128.159 -12.6472 1.90761 -86.7702 -150.013 20.9447 108.688 -57.4326 19.0381 -14.2938 86.9917 8.8521 -11.6901 33.3883 -8.96438 16.2612 160.561 24.0315 71.9394 -59.7046 -23.7374 2.35984 85.0891 -10.3124 3.10559 35.0829 -0.446946 0.346722 1.01648 7.03431 -90.407 12.8144 1.82362 -1.03176 1.14427 1.77646 -1.11104 -21.4003 2.04936 -0.435815 -1.38767 2.0494 -0.435796 90.5794 -14.0803 -113.32 156.414 83.5538 -152.243 -69.8921 -21.3285 -123.588 -23.2727 -2.56528 -1.37472 -88.2032 -33.9326 77.8572 -37.4969 -12.4253 -89.8464 80.2103 1.21135 -91.4276 -14.6395 -0.00348386 -5.17987 43.8821 -0.24248 1.49539 -6.98517 -0.97024 -0.885728 
-90.0432 24.4468 129.457 -12.4147 0.218341 -86.4109 -151.607 18.4295 108.176 -54.9441 17.9088 -13.8862 89.1054 9.25827 -12.4995 33.3468 -8.35262 15.112 158.125 22.4438 70.2352 -57.2258 -25.8141 3.50171 84.5433 -10.0127 3.3373 34.3098 -0.208162 -0.287843 1.05523 6.87231 -90.3844 13.1389 1.9095 -1.00527 1.4689 1.8634 -1.08835 -21.0768 2.12329 -0.384723 -1.06419 2.12331 -0.384691 90.2437 -17.5422 -112.082 -175.085 83.7929 -166.59 -65.6631 -12.429 -133.707 -25.9236 -3.48562 2.47168 -89.3115 -29.0809 74.3123 -41.4294 -11.0524 -88.7793 81.898 1.5185 -92.0066 -14.4373 -0.0536827 -4.71113 42.8413 -2.27455 -1.63644 -6.14347 -1.36766 2.0298 
-89.9965 23.677 130.808 -11.8391 -1.86571 -87.1677 -152.91 17.051 105.833 -54.8161 15.6547 -13.6239 91.0749 9.80758 -12.859 33.3355 -8.63081 15.6291 156.569 22.6863 67.3252 -55.257 -29.954 3.94672 82.823 -9.4216 3.16605 36.3824 -0.343328 -0.214635 1.10669 6.78529 -90.4871 13.3147 1.96081 -1.22283 1.64461 1.9051 -1.30798 -20.901 2.23763 -0.576778 -0.8884 2.23763 -0.576804 87.058 -25.3217 -114.87 -142.45 77.58 161.81 -63.5807 -10.513 -138.743 -30.0928 -4.22337 3.23717 -87.3018 -31.2003 78.8134 -40.4328 -3.62373 -90.7632 81.7732 1.81029 -91.0979 -13.7376 -0.124513 -4.03236 42.8248 -1.67652 2.64073 -6.37822 -2.92417 -0.203119 
-89.5082 23.0984 132.299 -11.0622 -6.21162 -88.3635 -154.872 17.3345 102.51 -56.5883 15.4316 -12.26 91.6841 10.1198 -12.6251 34.5403 -8.58021 15.8129 153.222 23.2561 63.3327 -52.9124 -33.8955 5.34687 81.5895 -9.03462 2.9754 38.8986 -0.683756 0.531569 0.980761 6.79426 -90.6293 13.296 1.6423 -1.46657 1.6252 1.5762 -1.53743 -20.9153 2.00709 -0.905146 -0.90261 2.00712 -0.905135 86.9528 -26.301 -114.561 -138.289 69.7057 153.021 -58.697 -13.538 -143.042 -32.5275 -4.59671 3.93517 -86.7316 -31.8261 80.0362 -42.0219 -1.44648 -93.1924 80.8472 1.78539 -91.023 -13.8579 -0.157216 -3.70783 41.9554 -1.3068 6.40522 -5.46256 -4.44308 -0.989167 
-88.9323 23.4042 133.499 -9.63977 -7.94256 -91.1432 -157.004 17.7309 98.2958 -56.4112 16.3432 -11.7343 91.861 10.0069 -13.3383 33.2929 -9.06561 16.4264 152.03 27.4172 59.7914 -53.7494 -36.0942 5.57707 80.6733 -8.82098 2.56695 39.9775 -0.784642 0.719027 0.788886 6.66687 -90.646 13.5472 1.25153 -1.45582 1.87596 1.18624 -1.50946 -20.6604 1.63119 -1.01237 -0.64776 1.63116 -1.01237 88.6889 -24.0068 -112.107 -134.796 77.0238 145.397 -55.7322 -14.2851 -142.869 -33.7687 -4.88942 5.44399 -86.1726 -32.824 81.3233 -44.6885 -1.70789 -93.6686 80.2768 2.0617 -91.267 -13.2346 -0.182607 -3.40141 35.7384 -0.374089 8.94016 -2.76858 -4.36437 -0.667819 
-88.1958 24.265 134.789 -8.63849 -5.17688 -94.2442 -157.664 16.9841 94.4696 -54.4028 17.176 -13.1382 91.3933 10.1527 -12.3376 34.7159 -8.65349 15.9931 152.967 33.6494 57.496 -58.0244 -33.662 4.58035 81.9439 -9.17848 3.50249 37.7996 -0.0654157 -1.48473 0.549059 6.57441 -90.6958 13.7283 0.750276 -1.49314 2.05664 0.683841 -1.52471 -20.4755 1.16429 -1.19868 -0.46284 1.16429 -1.19867 89.2752 -22.1147 -111.802 60.3849 86.6924 -55.8877 -57.9031 -8.64073 -136.242 -28.1099 -4.43039 7.44416 -84.8533 -33.1097 83.8401 -49.1219 -6.36558 -93.0971 78.5243 2.62175 -91.8448 -12.9899 -0.21162 -3.07397 26.8932 2.0918 12.8549 0.683935 -2.81243 -1.61333 
